<svg xmlns="http://www.w3.org/2000/svg" xmlns:xlink="http://www.w3.org/1999/xlink" version="1.1" id="Layer_1" x="0px" y="0px" width="100px" height="100px" viewBox="0 0 100 100" enable-background="new 0 0 100 100" xml:space="preserve">
<g>
	<path fill="#000000" d="M64.008,72.381c4.002-3.149,12.23-11.582,15.089-21.179c-6.511-8.01-33.912-42.187-40.238-50.08   C38.212,8.613,31.63,24.377,20.21,29.646c-5.247,2.56-10.477,4.156-12.467,4.721l39.077,47.32   C51.235,80.263,59.958,75.56,64.008,72.381z"/>
	<g>
		<g>
			<path fill="#000000" d="M90.405,75.352c-6.5,3.781-13.381,7.281-20.674,9.929c-8.632,3.134-19.05,6.681-22.386,7.664v5.127     l43.046-15.479L90.405,75.352z"/>
			<polygon fill="#000000" points="6.891,35.865 6.891,50.088 45.703,97.945 45.736,82.902    "/>
		</g>
		<path fill="#000000" d="M88.717,70.42c-5.018,3.936-11.386,7.921-18.278,11.363c-6.521,3.266-20.879,7.668-23.093,8.339v1.144    c3.686-1.09,13.036-3.898,21.237-7.013c9.104-3.457,22.12-11.628,22.12-11.628L88.717,70.42z"/>
	</g>
	<path fill="#000000" d="M80.877,50.835l-0.114,0.403c-2.851,10.142-11.25,18.858-15.762,22.409   c-4.225,3.319-13.009,8.054-17.655,9.561v2.168c6.53-2.034,15.656-6.36,20.721-9.922c8.699-6.128,17.195-14.63,22.419-22.404   l0.047,0.036C84.648,46.442,51.938,9.001,49.818,6.309c-0.719,1.357-1.368,2.265-2.422,2.887   c10.832,13.508,28.598,35.647,33.217,41.314L80.877,50.835z"/>
	<path fill="#000000" d="M87.321,59.925c0,0-11.588,12.1-18.328,16.846c-5.696,4.008-14.5,7.942-21.647,10.168v1.498   c0.692-0.212,1.838-0.566,3.268-1.021c5.266-1.677,14.41-4.722,19.106-7.072c9.305-4.648,17.623-10.274,22.834-15.386   c0.054-0.053,0.106-0.106,0.161-0.16L87.321,59.925z"/>
</g>
</svg>